<svg xmlns="http://www.w3.org/2000/svg" viewBox="0 0 64 64" fill="none" focusable="false">
  <path fill="url(#paint0_linear)" fill-rule="evenodd" clip-rule="evenodd" d="M32 16c-7.2 0-11.7 3.6-13.5 10.8 2.7-3.6 5.85-4.95 9.45-4.05 2.054.514 3.522 2.004 5.147 3.653C35.744 29.09 38.808 32.2 45.5 32.2c7.2 0 11.7-3.6 13.5-10.8-2.7 3.6-5.85 4.95-9.45 4.05-2.054-.514-3.522-2.004-5.147-3.653C41.756 19.11 38.692 16 32 16zM18.5 32.2C11.3 32.2 6.8 35.8 5 43c2.7-3.6 5.85-4.95 9.45-4.05 2.054.514 3.522 2.004 5.147 3.653C22.244 45.29 25.308 48.4 32 48.4c7.2 0 11.7-3.6 13.5-10.8-2.7 3.6-5.85 4.95-9.45 4.05-2.054-.514-3.522-2.004-5.147-3.653C28.256 35.31 25.192 32.2 18.5 32.2z"/>
  <defs>
    <linearGradient id="paint0_linear" x1="3.5" y1="16" x2="59" y2="48" gradientUnits="userSpaceOnUse">
      <stop stop-color="#2298BD"/>
      <stop offset="1" stop-color="#0ED7B5"/>
    </linearGradient>
  </defs>
</svg>
